<?xml version="1.0" standalone="no"?>
<!DOCTYPE svg PUBLIC "-//W3C//DTD SVG 20010904//EN"
 "http://www.w3.org/TR/2001/REC-SVG-20010904/DTD/svg10.dtd">
<svg version="1.0" xmlns="http://www.w3.org/2000/svg"
 width="400.000000pt" height="400.000000pt" viewBox="0 0 400.000000 400.000000"
 preserveAspectRatio="xMidYMid meet">

<g transform="translate(0.000000,400.000000) scale(0.100000,-0.100000)"
fill="#000000" stroke="none">
<path d="M0 2000 l0 -2000 2000 0 2000 0 0 2000 0 2000 -2000 0 -2000 0 0
-2000z m2242 1561 c181 -41 357 -133 484 -253 45 -42 56 -48 80 -42 53 13 108
46 167 102 63 60 64 55 13 -45 -115 -226 -473 -561 -745 -698 l-54 -27 -56 29
c-80 40 -172 40 -255 -1 l-60 -29 -55 29 c-153 80 -395 266 -523 403 -90 96
-181 218 -219 294 -52 102 -51 108 5 52 49 -49 117 -92 174 -110 19 -5 34 3
81 43 172 150 344 232 561 267 108 18 286 12 402 -14z m-1133 -605 c17 -25 55
-70 83 -101 50 -55 51 -58 39 -88 -44 -108 -54 -206 -31 -284 37 -124 175
-223 332 -240 54 -5 59 -8 54 -27 -3 -12 -6 -46 -6 -77 l0 -56 -170 -98 c-93
-53 -170 -100 -170 -104 0 -3 64 -42 143 -86 203 -113 242 -154 336 -342 64
-129 127 -304 207 -576 35 -122 67 -229 71 -237 6 -18 11 -5 94 275 101 345
189 558 285 692 56 78 69 88 242 185 78 44 144 83 146 87 2 3 -65 46 -149 95
-85 48 -161 93 -169 100 -9 7 -17 39 -21 89 l-7 77 33 0 c135 1 275 86 337
205 23 43 27 62 27 135 0 69 -5 97 -27 149 l-27 64 57 66 c31 37 71 85 88 107
l31 39 25 -50 c34 -67 76 -185 95 -265 11 -49 17 -163 23 -455 4 -214 13 -428
19 -475 31 -223 90 -439 175 -635 30 -69 50 -122 44 -119 -5 3 -84 66 -176
140 -129 104 -169 131 -178 121 -6 -6 -64 -99 -128 -204 -65 -106 -121 -193
-126 -193 -4 0 -55 46 -114 101 -130 124 -155 144 -165 133 -4 -5 -101 -162
-216 -349 -114 -187 -209 -341 -210 -343 -1 -1 -96 149 -210 335 -115 186
-213 345 -219 354 -10 15 -30 -1 -147 -112 l-136 -129 -122 198 c-67 108 -125
203 -130 211 -7 10 -50 -20 -184 -128 -97 -77 -178 -141 -181 -141 -3 0 17 46
44 102 92 197 165 468 190 708 6 58 15 272 19 475 8 334 11 378 30 450 24 85
98 265 110 265 4 0 22 -20 40 -44z m393 -367 c46 -31 114 -73 151 -94 38 -20
65 -41 60 -45 -18 -16 -87 -32 -142 -32 -131 0 -220 79 -208 184 8 63 14 73
37 56 10 -7 56 -38 102 -69z m1136 35 c26 -120 -60 -206 -207 -206 -46 0 -83
7 -112 19 l-44 19 73 39 c40 21 117 69 170 106 53 37 100 68 104 68 3 1 11
-20 16 -45z m-573 -153 c118 -54 185 -190 185 -374 0 -48 4 -97 10 -107 5 -10
36 -33 67 -51 103 -58 100 -52 44 -88 -133 -86 -229 -237 -320 -505 l-49 -146
-47 140 c-94 282 -164 390 -344 528 l-25 19 68 38 c94 53 96 55 96 138 0 168
43 293 127 367 69 60 121 72 188 41z"/>
</g>
</svg>
