<?xml version="1.0" standalone="no"?>
<!DOCTYPE svg PUBLIC "-//W3C//DTD SVG 20010904//EN"
 "http://www.w3.org/TR/2001/REC-SVG-20010904/DTD/svg10.dtd">
<svg version="1.0" xmlns="http://www.w3.org/2000/svg"
 width="350.000000pt" height="350.000000pt" viewBox="0 0 350.000000 350.000000"
 preserveAspectRatio="xMidYMid meet">

<g transform="translate(0.000000,350.000000) scale(0.100000,-0.100000)"
fill="#000000" stroke="none">
<path d="M1580 3384 c-495 -62 -906 -308 -1187 -711 -68 -98 -163 -290 -202
-410 -58 -177 -76 -296 -76 -513 0 -163 4 -214 23 -308 135 -674 652 -1183
1327 -1308 151 -29 462 -26 605 5 661 141 1151 631 1291 1291 19 88 23 137 23
310 1 174 -2 221 -21 316 -135 667 -636 1170 -1298 1304 -98 20 -397 35 -485
24z m45 -1129 c98 -129 181 -235 184 -234 3 0 97 106 209 235 l203 234 120 0
c71 0 119 -4 117 -9 -1 -6 -123 -147 -269 -314 l-267 -304 147 -194 c80 -107
223 -296 318 -422 l172 -227 -252 0 -252 1 -190 249 c-104 138 -193 250 -197
250 -4 0 -106 -112 -225 -250 l-218 -249 -123 -1 c-96 0 -121 3 -116 13 5 6
133 155 287 330 l278 318 -305 399 c-169 220 -306 402 -306 405 0 3 114 5 254
5 l254 0 177 -235z"/>
<path d="M1679 1754 l448 -586 67 -2 c36 0 66 1 66 4 0 3 -198 267 -441 588
l-440 582 -74 0 -74 0 448 -586z"/>
</g>
</svg>
